<?xml version="1.0" encoding="UTF-8" standalone="no"?>
<!-- Created with Inkscape (http://www.inkscape.org/) -->

<svg
   xmlns:dc="http://purl.org/dc/elements/1.1/"
   xmlns:cc="http://creativecommons.org/ns#"
   xmlns:rdf="http://www.w3.org/1999/02/22-rdf-syntax-ns#"
   xmlns:svg="http://www.w3.org/2000/svg"
   xmlns="http://www.w3.org/2000/svg"
   xmlns:sodipodi="http://sodipodi.sourceforge.net/DTD/sodipodi-0.dtd"
   xmlns:inkscape="http://www.inkscape.org/namespaces/inkscape"
   width="25.343658mm"
   height="18.503933mm"
   viewBox="0 0 25.343662 18.503935"
   version="1.1"
   id="svg2044"
   inkscape:version="0.92.5 (2060ec1f9f, 2020-04-08)"
   sodipodi:docname="ship_line.svg">
  <defs
     id="defs2038" />
  <sodipodi:namedview
     id="base"
     pagecolor="#ffffff"
     bordercolor="#666666"
     borderopacity="1.0"
     inkscape:pageopacity="0.0"
     inkscape:pageshadow="2"
     inkscape:zoom="0.35"
     inkscape:cx="-394.80887"
     inkscape:cy="-199.38552"
     inkscape:document-units="mm"
     inkscape:current-layer="layer1"
     showgrid="false"
     fit-margin-top="1"
     fit-margin-right="1"
     fit-margin-bottom="1"
     fit-margin-left="1"
     inkscape:window-width="1848"
     inkscape:window-height="1016"
     inkscape:window-x="72"
     inkscape:window-y="27"
     inkscape:window-maximized="1" />
  <metadata
     id="metadata2041">
    <rdf:RDF>
      <cc:Work
         rdf:about="">
        <dc:format>image/svg+xml</dc:format>
        <dc:type
           rdf:resource="http://purl.org/dc/dcmitype/StillImage" />
        <dc:title></dc:title>
      </cc:Work>
    </rdf:RDF>
  </metadata>
  <g
     inkscape:label="Capa 1"
     inkscape:groupmode="layer"
     id="layer1"
     transform="translate(-24.71791,-68.283877)">
    <g
       transform="matrix(0.35277777,0,0,-0.35277777,-45.012269,222.38689)"
       id="g1724">
      <path
         d="m 232.623,430.051 c 1.049,-4.435 3.155,-14.895 1.969,-23.203 2.123,1.318 5.341,3.159 7.722,4.095 3.092,1.212 6.412,2.138 9.892,2.759 -3.304,4.488 -7.239,8.396 -11.713,11.634 -2.476,1.791 -5.117,3.372 -7.87,4.715 m 0.5,-26.437 c -0.195,0 -0.391,0.054 -0.562,0.165 -0.367,0.24 -0.545,0.686 -0.44,1.111 2.483,10.206 -1.978,26.569 -2.023,26.734 -0.107,0.384 0.018,0.795 0.319,1.055 0.302,0.264 0.726,0.327 1.091,0.165 3.592,-1.577 7.021,-3.539 10.195,-5.835 5.105,-3.694 9.53,-8.227 13.157,-13.47 0.203,-0.293 0.24,-0.67 0.098,-0.999 -0.143,-0.326 -0.443,-0.556 -0.796,-0.609 -3.927,-0.587 -7.661,-1.565 -11.093,-2.912 -3.445,-1.352 -8.659,-4.683 -9.314,-5.19 -0.186,-0.143 -0.408,-0.215 -0.632,-0.215"
         style="fill:#363536;fill-opacity:1;fill-rule:nonzero;stroke:none;stroke-width:0.1"
         id="path98"
         inkscape:connector-curvature="0" />
      <path
         d="m 214.812,409.101 c 2.162,-1.252 4.478,-2.196 6.902,-2.815 2.353,-0.598 4.738,-0.868 7.202,-0.833 0.644,3.963 0.793,7.986 0.442,11.97 -0.168,1.912 -0.454,3.826 -0.853,5.712 -1.545,-2.152 -3.221,-4.212 -5.002,-6.146 -2.649,-2.876 -5.567,-5.524 -8.691,-7.888 m 13.598,-5.72 c -2.429,0 -4.847,0.303 -7.206,0.904 -3.131,0.798 -6.092,2.101 -8.8,3.876 -0.287,0.186 -0.46,0.501 -0.468,0.841 -0.008,0.339 0.153,0.662 0.429,0.86 3.482,2.507 6.717,5.375 9.617,8.527 2.233,2.424 4.298,5.052 6.136,7.814 0.227,0.338 0.631,0.522 1.028,0.445 0.401,-0.067 0.726,-0.363 0.829,-0.756 0.71,-2.713 1.194,-5.5 1.44,-8.288 0.392,-4.441 0.188,-8.928 -0.607,-13.339 -0.085,-0.472 -0.486,-0.825 -0.966,-0.848 -0.478,-0.024 -0.954,-0.036 -1.432,-0.036"
         style="fill:#363536;fill-opacity:1;fill-rule:nonzero;stroke:none;stroke-width:0.1"
         id="path100"
         inkscape:connector-curvature="0" />
      <path
         d="m 229.051,431.11 c 0.039,0.903 0.387,1.621 0.674,2.063 0.099,0.153 0.109,0.348 0.028,0.51 -0.081,0.164 -0.244,0.272 -0.426,0.285 -1.246,0.082 -2.438,-0.039 -3.527,-0.368 -0.617,-0.187 -1.051,-0.391 -1.509,-0.605 -0.423,-0.199 -0.859,-0.405 -1.503,-0.625 -0.86,-0.294 -1.758,-0.5 -2.664,-0.609 -0.21,-0.024 -0.381,-0.173 -0.437,-0.375 -0.055,-0.204 0.016,-0.42 0.183,-0.547 0.944,-0.724 1.947,-1.198 2.983,-1.408 0.849,-0.173 1.424,-0.11 1.934,-0.058 0.521,0.058 0.976,0.101 1.697,-0.121 0.018,-0.006 0.449,-0.163 2.567,-1.279 0.075,-0.038 0.157,-0.057 0.24,-0.057 0.138,0 0.272,0.053 0.371,0.156 0.16,0.166 0.192,0.418 0.077,0.616 -0.008,0.014 -0.738,1.302 -0.688,2.422"
         style="fill:#363536;fill-opacity:1;fill-rule:nonzero;stroke:none;stroke-width:0.1"
         id="path102"
         inkscape:connector-curvature="0" />
      <path
         d="m 206.641,399.531 c -0.476,0.908 -0.641,1.58 -0.506,1.89 0.214,0.484 3.274,0.008 5.505,-0.343 4.978,-0.778 12.503,-1.956 22.664,-0.895 8.206,0.855 14.674,3.219 19.399,4.945 3.084,1.126 6.285,2.294 6.77,1.579 0.057,-0.083 0.296,-0.549 -0.229,-1.959 -1.25,-0.081 -2.899,-0.694 -5.274,-1.564 -4.409,-1.611 -11.07,-4.048 -20.484,-5.03 -9.893,-1.031 -17.256,0.125 -22.127,0.883 -2.632,0.413 -4.443,0.692 -5.718,0.494 z m 4.489,-8.174 c 0.68,0.352 1.316,0.752 1.87,1.143 -2.253,1.796 -3.921,3.547 -5.051,5.029 1.036,-0.052 2.496,-0.281 4.091,-0.531 3.564,-0.559 8.429,-1.319 14.631,-1.319 2.465,0 5.141,0.121 8.029,0.421 9.667,1.009 16.476,3.498 20.98,5.146 1.288,0.471 2.474,0.896 3.409,1.161 -0.777,-1.34 -1.935,-3.068 -3.685,-5.318 -0.919,-1.183 -1.93,-2.297 -3.01,-3.339 0.234,-0.208 0.825,-0.715 1.638,-1.285 1.073,1.056 2.086,2.177 3.013,3.371 4.859,6.247 6.488,10.073 5.127,12.045 -1.406,2.033 -4.334,0.958 -9.179,-0.812 -4.622,-1.691 -10.954,-4.004 -18.904,-4.833 -9.897,-1.035 -17.261,0.123 -22.132,0.883 -4.421,0.69 -6.862,1.071 -7.713,-0.869 -1.12,-2.554 2.474,-7.222 6.886,-10.893"
         style="fill:#363536;fill-opacity:1;fill-rule:nonzero;stroke:none;stroke-width:0.1"
         id="path104"
         inkscape:connector-curvature="0" />
      <path
         d="m 259.483,389.275 c -2.3,0 -4.669,1.364 -6.21,2.464 -0.85,0.607 -1.449,1.133 -1.638,1.304 -0.04,0.036 -0.066,0.06 -0.068,0.062 l -0.765,0.725 -0.765,-0.726 c -0.04,-0.039 -4.074,-3.829 -7.9,-3.829 -3.824,0 -7.856,3.79 -7.896,3.829 l -0.767,0.726 -0.765,-0.726 c -0.041,-0.039 -4.073,-3.829 -7.897,-3.829 -3.819,0 -7.847,3.79 -7.887,3.829 l -0.768,0.73 -0.766,-0.73 c -0.02,-0.02 -1.042,-0.987 -2.539,-1.944 -0.268,-0.171 -0.555,-0.34 -0.851,-0.506 -1.338,-0.748 -2.922,-1.379 -4.482,-1.379 -2.773,0 -5.635,1.985 -7.024,3.095 v -2.599 c 1.791,-1.212 4.358,-2.561 7.024,-2.561 3.632,0 7.135,2.521 8.64,3.764 1.509,-1.243 5.018,-3.764 8.653,-3.764 3.64,0 7.153,2.523 8.662,3.764 1.511,-1.241 5.023,-3.764 8.663,-3.764 3.642,0 7.159,2.523 8.667,3.766 1.512,-1.243 5.033,-3.766 8.679,-3.766 2.741,0 5.385,1.421 7.183,2.657 v 2.609 c -1.337,-1.087 -4.308,-3.201 -7.183,-3.201"
         style="fill:#363536;fill-opacity:1;fill-rule:nonzero;stroke:none;stroke-width:0.1"
         id="path106"
         inkscape:connector-curvature="0" />
    </g>
  </g>
</svg>
